<svg xmlns="http://www.w3.org/2000/svg" viewBox="0 0 100 100"><defs><linearGradient id="primaryGradientLight" x1="0%" x2="100%" y1="0%" y2="100%"><stop offset="0%" stop-color="#3498db"/><stop offset="100%" stop-color="#2980b9"/></linearGradient><linearGradient id="secondaryGradientLight" x1="0%" x2="100%" y1="0%" y2="100%"><stop offset="0%" stop-color="#2ecc71"/><stop offset="100%" stop-color="#27ae60"/></linearGradient><linearGradient id="accentGradientLight" x1="0%" x2="100%" y1="0%" y2="100%"><stop offset="0%" stop-color="#e74c3c"/><stop offset="100%" stop-color="#c0392b"/></linearGradient><linearGradient id="primaryGradientDark" x1="0%" x2="100%" y1="0%" y2="100%"><stop offset="0%" stop-color="#6ab0de"/><stop offset="100%" stop-color="#4a90c0"/></linearGradient><linearGradient id="secondaryGradientDark" x1="0%" x2="100%" y1="0%" y2="100%"><stop offset="0%" stop-color="#5eeba0"/><stop offset="100%" stop-color="#3cc17c"/></linearGradient><linearGradient id="accentGradientDark" x1="0%" x2="100%" y1="0%" y2="100%"><stop offset="0%" stop-color="#ff7675"/><stop offset="100%" stop-color="#e84c3d"/></linearGradient><filter id="dropShadow" width="140%" height="140%" x="-20%" y="-20%"><feGaussianBlur in="SourceAlpha" stdDeviation="1"/><feOffset dx="1" dy="1" result="offsetblur"/><feComponentTransfer><feFuncA slope=".3" type="linear"/></feComponentTransfer><feMerge><feMergeNode/><feMergeNode in="SourceGraphic"/></feMerge></filter></defs><style>@media (prefers-color-scheme:light){.primary{fill:url(#primaryGradientLight)}.secondary{fill:url(#secondaryGradientLight)}.accent{fill:url(#accentGradientLight)}}@media (prefers-color-scheme:dark){.primary{fill:url(#primaryGradientDark)}.secondary{fill:url(#secondaryGradientDark)}.accent{fill:url(#accentGradientDark)}}polygon{filter:url(#dropShadow);transition:all .3s ease}polygon:hover{transform:scale(1.02)}</style><path d="m12.983 10.59 17.018 88.223-5.872-59.049 29.021-1.892-.054-9.883L64.549 1 53.622 18.977z" class="primary"/><path d="m59.389 54.548 5.16-53.541-8.74 39.716-19.612 1.045 1.57 20.462-7.766 36.583 12.057-39.899z" class="secondary"/><path d="m62.8 67.182.549-10.453-15.979 3.755-.032 11.797-17.337 26.532 21.68-27.616z" class="accent"/><path d="m65.711 62.394 14.841-4.731 1.509-12.532-15.899 2.095z" class="primary"/><path d="m72.07 44.502 10.988-1.417 1.581-10.278-8.079-.373L64.549 1l8.43 30.967z" class="secondary"/><path d="m87.413 31.294 1.256-9.506-9.544-2.694L64.549 1l14.483 22.437-.422 7z" class="accent"/></svg>